<svg width="30" height="30" viewBox="0 0 30 30" fill="none" class="link-svg" xmlns="http://www.w3.org/2000/svg">
    <path fill-rule="evenodd" clip-rule="evenodd" d="M15 27a12 12 0 1 0 0-24 12 12 0 0 0 0 24zM9.29 16.28c-.2.36-.29.75-.29 1.17a2.57 2.57 0 0 0 .78 1.84l1.01.96c.53.5 1.17.75 1.92.75s1.38-.25 1.9-.75l1.2-1.15.75-.71.51-.5a2.51 2.51 0 0 0 .72-2.34.7.7 0 0 0-.03-.18 2.74 2.74 0 0 0-.23-.5v-.02l-.08-.14-.02-.03-.02-.01a.33.33 0 0 0-.07-.1c0-.02-.01-.03-.03-.05a.2.2 0 0 0-.03-.03l-.03-.04v-.01l-.02-.03-.04-.03a.85.85 0 0 1-.13-.13l-.43-.42-.06.06-.9.84-.05.09a.26.26 0 0 0-.03.1l.37.38c.04.03.08.07.1.11l.01.01.01.03.02.01.04.1.03.04.06.1v.02l.01.02c.03.1.05.2.05.33a1 1 0 0 1-.12.49c-.07.13-.15.22-.22.29l-.88.85-.61.57-.95.92c-.22.2-.5.3-.82.3-.31 0-.58-.1-.8-.3l-.98-.96a1.15 1.15 0 0 1-.3-.42 1.4 1.4 0 0 1-.04-.35c0-.1.01-.2.04-.3a1 1 0 0 1 .3-.49l1.5-1.46v-.24c0-.21 0-.42.04-.6a3.5 3.5 0 0 1 .92-1.72c-.41.1-.78.32-1.11.62l-.01.02-.01.01-2.46 2.33c-.2.21-.35.4-.44.6h-.02c0 .02 0 .02-.02.02v.02l-.01.01zm3.92-1.8a1.83 1.83 0 0 0 .02.97c0 .06 0 .13.02.19.06.17.14.34.22.5v.02l.06.12.02.03.01.02.08.1c0 .02.02.03.04.05l.08.1h.01c0 .01 0 .03.02.03l.14.14.43.41.08-.06.88-.84.05-.09.03-.1-.36-.37a.4.4 0 0 1-.12-.13v-.02l-.02-.02-.05-.09-.04-.04-.04-.1v-.02l-.02-.02a1.16 1.16 0 0 1 .06-.82c.09-.14.16-.24.23-.3l.9-.85.6-.58.93-.92c.23-.2.5-.3.82-.3a1.2 1.2 0 0 1 .82.3l1 .96c.13.15.23.29.28.42a1.43 1.43 0 0 1 0 .66c-.03.17-.12.33-.26.48l-1.54 1.45.02.25a3.28 3.28 0 0 1-.96 2.32 2.5 2.5 0 0 0 1.1-.62l.01-.01 2.46-2.34c.19-.2.35-.4.46-.6l.02-.02v-.02h.01a2.45 2.45 0 0 0 .21-1.82 2.53 2.53 0 0 0-.7-1.19l-1-.96a2.68 2.68 0 0 0-1.91-.75c-.75 0-1.38.25-1.9.76l-1.2 1.14-.76.72-.5.49c-.4.37-.64.83-.74 1.37z" fill="#292929"></path>
</svg> 
